<svg width="37" height="40" viewBox="0 0 37 40" fill="none" xmlns="http://www.w3.org/2000/svg">
<path d="M12.5 -9.49609C-1.00883 -9.49609 -12 1.47138 -12 14.952C-12 28.4325 -1.00883 39.4 12.5 39.4C26.0092 39.4 37 28.4325 37 14.952C37 1.47138 26.0092 -9.49609 12.5 -9.49609ZM13.6484 -2.52995L21.6758 -5.21768C24.4307 -3.9654 26.8866 -2.17216 28.9018 0.0320501L28.8866 8.55511L21.7641 10.2762L13.6484 4.39195V-2.52995ZM3.2705 -5.19362L11.3516 -2.52529V4.39195L3.23589 10.2762L-3.83722 8.55589L-3.85317 0.512862C-3.85317 0.364621 -3.89789 0.227246 -3.97178 0.110051C-1.95694 -2.1155 0.505888 -3.92737 3.2705 -5.19362ZM-6.84528 25.8088C-8.283 23.2682 -9.23461 20.4202 -9.56789 17.3875L-4.54189 10.7415L2.53706 12.4633L5.63183 21.9674L1.20006 28.4547L-6.84528 25.8088ZM16.7646 36.7068C15.3836 36.9762 13.9595 37.1155 12.5004 37.1155C10.8846 37.1159 9.30956 36.9323 7.79133 36.6032L3.04961 29.8377L7.49306 23.3559H17.4996L21.5261 29.8237L16.7646 36.7068ZM23.3862 28.4477L19.367 21.9705L22.4629 12.4629L29.5913 10.7407L34.5807 17.2881C34.2634 20.2972 33.339 23.1269 31.9339 25.6563L23.3862 28.4477Z" fill="black" fill-opacity="0.02"/>
</svg>
