<svg xmlns="http://www.w3.org/2000/svg" width="9.805" height="12.573" viewBox="0 0 9.805 12.573">
  <g id="delete" transform="translate(-1.2 -1.6)">
    <path id="Path_10183" data-name="Path 10183" d="M1.3,15.365h0l.537.44v8.5a.747.747,0,0,0,.749.749H9.769a.747.747,0,0,0,.749-.749v-8.5l.537-.456h0V14.6H1.3Zm6.6,1.173h.912v7.313H7.9Zm-2.166,0h.912v7.313H5.73V16.538Zm-2.166,0h.912v7.313H3.564Z" transform="translate(-0.084 -10.883)" fill="#fff"/>
    <path id="Path_10184" data-name="Path 10184" d="M10.825,2.659H7.65V1.909A.309.309,0,0,0,7.34,1.6H4.865a.309.309,0,0,0-.309.309v.749H1.379a.181.181,0,0,0-.179.179v.586H11V2.838A.181.181,0,0,0,10.825,2.659ZM7.079,2.479H5.125V2.268a.105.105,0,0,1,.1-.1H6.982a.105.105,0,0,1,.1.1Z" fill="#fff"/>
  </g>
</svg>
