<svg id="Layer_32" data-name="Layer 32" xmlns="http://www.w3.org/2000/svg" width="22.001" height="22.029" viewBox="0 0 22.001 22.029">
  <path id="Path_10173" data-name="Path 10173" d="M29.83,14.926V11.268a.768.768,0,1,0-1.537,0v3.658a3.11,3.11,0,0,0,0,6.014V31.76a.768.768,0,1,0,1.537,0V20.941A3.111,3.111,0,0,0,29.83,14.926ZM29.062,19.5a1.573,1.573,0,1,1,1.483-1.57A1.573,1.573,0,0,1,29.062,19.5Z" transform="translate(-18.075 -10.5)" fill="#03526d"/>
  <path id="Path_10174" data-name="Path 10174" d="M47.606,21.514a3.11,3.11,0,0,0-2.336-3.007V11.268a.768.768,0,1,0-1.537,0v7.239a3.11,3.11,0,0,0,0,6.014V31.76a.768.768,0,1,0,1.537,0V24.522A3.11,3.11,0,0,0,47.606,21.514Zm-3.074,1.568a1.568,1.568,0,1,0-.02,0Z" transform="translate(-25.605 -10.5)" fill="#03526d"/>
  <path id="Path_10175" data-name="Path 10175" d="M14.4,24.076V11.268a.768.768,0,1,0-1.537,0V24.076a3.11,3.11,0,0,0,0,6.009V31.76a.768.768,0,1,0,1.537,0V30.09a3.11,3.11,0,0,0,0-6.014Zm-.768,4.58a1.573,1.573,0,0,1,0-3.14,1.573,1.573,0,0,1,0,3.14Z" transform="translate(-10.554 -10.5)" fill="#03526d"/>
</svg>
