<svg width="176" height="162" viewBox="0 0 176 162" fill="none" xmlns="http://www.w3.org/2000/svg">
<path d="M61.3125 -67.4375L-19.3843 -34.0092L-52.8125 46.6875L-19.3843 127.384L61.3125 160.812L142.009 127.384L175.438 46.6875L142.009 -34.0092L61.3125 -67.4375Z" stroke="white" stroke-opacity="0.1" stroke-miterlimit="10" stroke-linecap="round" stroke-linejoin="round"/>
<path d="M30.1045 98.5624L10.7032 35.0571L61.4474 -1.91943L112.191 35.0571L92.811 98.5624H30.1045Z" stroke="white" stroke-opacity="0.1" stroke-miterlimit="10" stroke-linecap="round" stroke-linejoin="round"/>
<path d="M-27.5182 107.755L10.7136 116.563L29.2123 147.512" stroke="white" stroke-opacity="0.1" stroke-miterlimit="10" stroke-linecap="round" stroke-linejoin="round"/>
<path d="M93.7966 147.356L112.192 116.542L150.123 107.807" stroke="white" stroke-opacity="0.1" stroke-miterlimit="10" stroke-linecap="round" stroke-linejoin="round"/>
<path d="M172.698 53.286L143.524 19.7022L147.186 -21.7356" stroke="white" stroke-opacity="0.1" stroke-miterlimit="10" stroke-linecap="round" stroke-linejoin="round"/>
<path d="M112.191 36.5408L143.524 19.7021" stroke="white" stroke-opacity="0.1" stroke-miterlimit="10" stroke-linecap="round" stroke-linejoin="round"/>
<path d="M92.811 98.5625L112.192 116.542" stroke="white" stroke-opacity="0.1" stroke-miterlimit="10" stroke-linecap="round" stroke-linejoin="round"/>
<path d="M30.1045 98.5625L10.7136 116.563" stroke="white" stroke-opacity="0.1" stroke-miterlimit="10" stroke-linecap="round" stroke-linejoin="round"/>
<path d="M-20.65 19.7333L10.7032 35.0571" stroke="white" stroke-opacity="0.1" stroke-miterlimit="10" stroke-linecap="round" stroke-linejoin="round"/>
</svg>
