<svg xmlns="http://www.w3.org/2000/svg" width="23.419" height="23.421" viewBox="0 0 23.419 23.421">
  <path id="home_1_" data-name="home(1)" d="M22.79,10.187l0,0L13.234.631a2.156,2.156,0,0,0-3.049,0L.636,10.18l-.01.01a2.155,2.155,0,0,0,1.435,3.674q.033,0,.066,0h.381V20.9a2.526,2.526,0,0,0,2.524,2.523H8.77a.686.686,0,0,0,.686-.686V17.222a1.153,1.153,0,0,1,1.151-1.151h2.2a1.153,1.153,0,0,1,1.151,1.151v5.512a.686.686,0,0,0,.686.686h3.738A2.526,2.526,0,0,0,20.911,20.9V13.866h.353a2.156,2.156,0,0,0,1.526-3.68Zm0,0" transform="translate(0 0.001)" fill="#03526d"/>
</svg>
