<svg xmlns="http://www.w3.org/2000/svg" width="17.484" height="29.108" viewBox="0 0 17.484 29.108">
  <g id="location" transform="translate(0)">
    <path id="Path_10171" data-name="Path 10171" d="M34.912,26.1,39.8,18.24a.445.445,0,0,0,.04-.08,8.729,8.729,0,1,0-14.879,0,.5.5,0,0,0,.035.07l4.71,7.882c-3.656.517-6.06,2.02-6.06,3.844,0,2.26,3.84,4.029,8.742,4.029s8.742-1.77,8.742-4.029C41.126,28.127,38.609,26.59,34.912,26.1Zm-9.077-8.373a7.752,7.752,0,1,1,13.123,0,.471.471,0,0,0-.04.081l-5.161,8.3c-.078.119-.093.146-.188.3l-1.3,2.1L25.879,17.81A.492.492,0,0,0,25.835,17.722Zm6.549,15.288c-4.576,0-7.764-1.609-7.764-3.052,0-1.31,2.4-2.544,5.631-2.926l1.587,2.656a.488.488,0,0,0,.415.238h0a.489.489,0,0,0,.415-.231l1.668-2.682c3.281.355,5.807,1.621,5.807,2.946C40.148,31.4,36.96,33.011,32.384,33.011Z" transform="translate(-23.642 -4.88)" fill="#fff"/>
    <path id="Path_10172" data-name="Path 10172" d="M47.079,25.1A3.174,3.174,0,1,0,43.9,28.277,3.178,3.178,0,0,0,47.079,25.1Zm-5.37,0a2.2,2.2,0,1,1,2.2,2.2A2.2,2.2,0,0,1,41.708,25.1Z" transform="translate(-35.163 -16.374)" fill="#fff"/>
  </g>
</svg>
