<svg xmlns="http://www.w3.org/2000/svg" width="22.911" height="26.92" viewBox="0 0 22.911 26.92">
  <path id="Icon_material-lock-outline" data-name="Icon material-lock-outline" d="M17.455,22.01a2.734,2.734,0,0,0,2.864-2.564,2.734,2.734,0,0,0-2.864-2.564,2.734,2.734,0,0,0-2.864,2.564A2.734,2.734,0,0,0,17.455,22.01Zm8.591-11.537H24.615V7.91c0-3.538-3.207-6.41-7.16-6.41S10.3,4.371,10.3,7.91v2.564H8.864A2.734,2.734,0,0,0,6,13.037V25.856A2.734,2.734,0,0,0,8.864,28.42H26.047a2.734,2.734,0,0,0,2.864-2.564V13.037A2.734,2.734,0,0,0,26.047,10.473ZM13.016,7.91a4.229,4.229,0,0,1,4.439-3.974A4.229,4.229,0,0,1,21.894,7.91v2.564H13.016Zm13.03,17.947H8.864V13.037H26.047Z" transform="translate(-6 -1.5)" fill="#03526d"/>
</svg>
