<svg width="37" height="38" viewBox="0 0 37 38" fill="none" xmlns="http://www.w3.org/2000/svg">
<rect x="0.5" y="1.33887" width="35.6063" height="35.5287" rx="17.7643" fill="white" fill-opacity="0.17" stroke="#D9D9D9"/>
<path d="M26.75 12.8051H9.25C9.07595 12.8051 8.90903 12.8742 8.78596 12.9973C8.66289 13.1203 8.59375 13.2873 8.59375 13.4613C8.59375 13.6354 8.66289 13.8023 8.78596 13.9253C8.90903 14.0484 9.07595 14.1176 9.25 14.1176H26.75C26.924 14.1176 27.091 14.0484 27.214 13.9253C27.3371 13.8023 27.4062 13.6354 27.4062 13.4613C27.4062 13.2873 27.3371 13.1203 27.214 12.9973C27.091 12.8742 26.924 12.8051 26.75 12.8051Z" fill="white"/>
<path d="M24.5625 18.3438H11.4375C11.2635 18.3438 11.0965 18.4129 10.9735 18.536C10.8504 18.659 10.7812 18.826 10.7812 19C10.7812 19.174 10.8504 19.341 10.9735 19.464C11.0965 19.5871 11.2635 19.6562 11.4375 19.6562H24.5625C24.7365 19.6562 24.9035 19.5871 25.0265 19.464C25.1496 19.341 25.2188 19.174 25.2188 19C25.2188 18.826 25.1496 18.659 25.0265 18.536C24.9035 18.4129 24.7365 18.3438 24.5625 18.3438Z" fill="white"/>
<path d="M22.375 23.8826H13.625C13.451 23.8826 13.284 23.9517 13.161 24.0748C13.0379 24.1978 12.9688 24.3648 12.9688 24.5388C12.9688 24.7129 13.0379 24.8798 13.161 25.0029C13.284 25.1259 13.451 25.1951 13.625 25.1951H22.375C22.549 25.1951 22.716 25.1259 22.839 25.0029C22.9621 24.8798 23.0312 24.7129 23.0312 24.5388C23.0312 24.3648 22.9621 24.1978 22.839 24.0748C22.716 23.9517 22.549 23.8826 22.375 23.8826Z" fill="white"/>
</svg>
