<svg width="28" height="28" viewBox="0 0 28 28" fill="none" xmlns="http://www.w3.org/2000/svg">
<path d="M22.75 7.80505H5.25C5.07595 7.80505 4.90903 7.87419 4.78596 7.99727C4.66289 8.12034 4.59375 8.28726 4.59375 8.4613C4.59375 8.63535 4.66289 8.80227 4.78596 8.92534C4.90903 9.04841 5.07595 9.11755 5.25 9.11755H22.75C22.924 9.11755 23.091 9.04841 23.214 8.92534C23.3371 8.80227 23.4062 8.63535 23.4062 8.4613C23.4062 8.28726 23.3371 8.12034 23.214 7.99727C23.091 7.87419 22.924 7.80505 22.75 7.80505Z" fill="white"/>
<path d="M20.5625 13.3438H7.4375C7.26345 13.3438 7.09653 13.4129 6.97346 13.536C6.85039 13.659 6.78125 13.826 6.78125 14C6.78125 14.174 6.85039 14.341 6.97346 14.464C7.09653 14.5871 7.26345 14.6562 7.4375 14.6562H20.5625C20.7365 14.6562 20.9035 14.5871 21.0265 14.464C21.1496 14.341 21.2188 14.174 21.2188 14C21.2188 13.826 21.1496 13.659 21.0265 13.536C20.9035 13.4129 20.7365 13.3438 20.5625 13.3438Z" fill="white"/>
<path d="M18.375 18.8826H9.625C9.45095 18.8826 9.28403 18.9517 9.16096 19.0748C9.03789 19.1978 8.96875 19.3648 8.96875 19.5388C8.96875 19.7129 9.03789 19.8798 9.16096 20.0029C9.28403 20.1259 9.45095 20.1951 9.625 20.1951H18.375C18.549 20.1951 18.716 20.1259 18.839 20.0029C18.9621 19.8798 19.0312 19.7129 19.0312 19.5388C19.0312 19.3648 18.9621 19.1978 18.839 19.0748C18.716 18.9517 18.549 18.8826 18.375 18.8826Z" fill="white"/>
</svg>
