<svg xmlns="http://www.w3.org/2000/svg" width="29" height="29" viewBox="0 0 29 29">
  <g id="Icons" transform="translate(5.701 1.349)">
    <g id="Rounded" transform="translate(-5.701 -1.083)">
      <g id="Hardware" transform="translate(0 0)">
        <g id="_-Round-_-Hardware-_-phone_iphone" data-name="-Round-/-Hardware-/-phone_iphone">
          <g id="Group_3" data-name="Group 3">
            <rect id="Rectangle-Copy-120" width="29" height="29" transform="translate(0 -0.266)" fill="none"/>
            <path id="_-Icon-Color" data-name="🔹-Icon-Color" d="M18.525,1H8.982A2.983,2.983,0,0,0,6,3.982V24.261a2.983,2.983,0,0,0,2.982,2.982h9.543a2.983,2.983,0,0,0,2.982-2.982V3.982A2.983,2.983,0,0,0,18.525,1ZM13.754,26.05a1.789,1.789,0,1,1,1.789-1.789A1.787,1.787,0,0,1,13.754,26.05Zm5.368-4.772H8.386V4.579H19.122Z" transform="translate(0.88 0.298)" fill="#03526d" fill-rule="evenodd"/>
          </g>
        </g>
      </g>
    </g>
  </g>
</svg>
