<svg xmlns="http://www.w3.org/2000/svg" width="32.451" height="32.451" viewBox="0 0 32.451 32.451">
  <g id="Icons" transform="translate(1 1)">
    <g id="Two-Tone" transform="translate(-1 -1)">
      <g id="Image" transform="translate(0)">
        <g id="Two-Tone-_-Image-_-add_photo_alternate" data-name="Two-Tone-/-Image-/-add_photo_alternate">
          <g id="Group_8122" data-name="Group 8122">
            <path id="Path" d="M0,0H32.451V32.451H0Z" fill="none" fill-rule="evenodd"/>
            <path id="_-Primary-Color" data-name="🔹-Primary-Color" d="M13.1,22.4l3.718-4.786,4.786,6.368H6.732l3.718-4.773ZM26.338,5.056h4.056v2.7H26.338V11.8h-2.7V7.761H19.577v-2.7h4.056V1h2.7Zm-2.7,21.634V13.169h2.7V26.69a2.712,2.712,0,0,1-2.7,2.7H4.7A2.712,2.712,0,0,1,2,26.69V7.761a2.712,2.712,0,0,1,2.7-2.7H18.225v2.7H4.7V26.69Z" transform="translate(0.704 0.352)" fill="#03526d" fill-rule="evenodd"/>
            <path id="_-Secondary-Color" data-name="🔹-Secondary-Color" d="M20.9,22.225H6.028l3.718-4.773,2.65,3.191,3.718-4.786Zm.676-14.873H17.521V6H4V24.93H22.93V11.408H21.577Z" transform="translate(1.408 2.113)" fill="#fff" fill-rule="evenodd"/>
          </g>
        </g>
      </g>
    </g>
  </g>
</svg>
