<svg xmlns="http://www.w3.org/2000/svg" width="15.163" height="15.163" viewBox="0 0 15.163 15.163">
  <path id="planet" d="M17.378,7.693q-.073-.2-.157-.4a7.581,7.581,0,0,0-6.928-4.635h-.112A7.583,7.583,0,0,0,3.25,7.289q-.084.2-.157.4a7.588,7.588,0,0,0,0,5.085c.049.136.1.271.157.4a7.58,7.58,0,0,0,6.928,4.635h.112a7.582,7.582,0,0,0,6.931-4.635q.084-.2.157-.4a7.587,7.587,0,0,0,0-5.085Zm-3.023.747h1.92a6.317,6.317,0,0,1,0,3.59h-1.92a13.8,13.8,0,0,0,.116-1.8,13.833,13.833,0,0,0-.115-1.795Zm-3.479,3.59V8.44h2.182a12.448,12.448,0,0,1,0,3.59Zm0-4.872V4.1a4.84,4.84,0,0,1,1.915,3.06Zm2.248-2.521a6.288,6.288,0,0,1,2.607,2.521H14.119a9.377,9.377,0,0,0-.773-2.125Q13.239,4.828,13.125,4.637Zm2.607,8.675a6.291,6.291,0,0,1-2.607,2.521q.114-.19.221-.4a9.385,9.385,0,0,0,.773-2.126Zm-2.94,0a4.838,4.838,0,0,1-1.915,3.06v-3.06ZM9.595,4.1V7.159H7.679A4.839,4.839,0,0,1,9.595,4.1Zm0,4.341v3.59H7.412a12.448,12.448,0,0,1,0-3.59Zm0,4.872v3.06a4.839,4.839,0,0,1-1.916-3.06ZM4.74,7.159A6.286,6.286,0,0,1,7.346,4.637q-.115.19-.221.4a9.4,9.4,0,0,0-.773,2.125Zm1.612,6.154a9.421,9.421,0,0,0,.773,2.126q.106.205.221.4A6.287,6.287,0,0,1,4.74,13.312Zm-.236-1.282H4.2a6.312,6.312,0,0,1,0-3.59h1.92A14.014,14.014,0,0,0,6.116,12.031Z" transform="translate(-2.654 -2.654)" fill="#a7a7a7"/>
</svg>
