<svg width="23" height="23" viewBox="0 0 23 23" fill="none" xmlns="http://www.w3.org/2000/svg">
<path fill-rule="evenodd" clip-rule="evenodd" d="M1.15 4.6C0.5175 4.6 0 5.1175 0 5.75V20.7C0 21.965 1.035 23 2.3 23H17.25C17.8825 23 18.4 22.4825 18.4 21.85C18.4 21.2175 17.8825 20.7 17.25 20.7H3.45C2.8175 20.7 2.3 20.1825 2.3 19.55V5.75C2.3 5.1175 1.7825 4.6 1.15 4.6ZM20.7 0H6.9C5.635 0 4.6 1.035 4.6 2.3V16.1C4.6 17.365 5.635 18.4 6.9 18.4H20.7C21.965 18.4 23 17.365 23 16.1V2.3C23 1.035 21.965 0 20.7 0ZM11.5 14.375V4.025L17.7905 8.74C18.101 8.97 18.101 9.43 17.7905 9.66L11.5 14.375Z" fill="#0D4D3A"/>
<path fill-rule="evenodd" clip-rule="evenodd" d="M1.15 4.59998C0.5175 4.59998 0 5.11748 0 5.74998V20.7C0 21.965 1.035 23 2.3 23H17.25C17.8825 23 18.4 22.4825 18.4 21.85C18.4 21.2175 17.8825 20.7 17.25 20.7H3.45C2.8175 20.7 2.3 20.1825 2.3 19.55V5.74998C2.3 5.11748 1.7825 4.59998 1.15 4.59998Z" fill="#FFB900"/>
</svg>
