<svg width="18" height="18" viewBox="0 0 18 18" fill="none" xmlns="http://www.w3.org/2000/svg">
<g clip-path="url(#clip0_3_65)">
<path d="M0.263475 16.4591L4.07498 12.6483C4.26237 12.4617 4.51611 12.3569 4.78062 12.3569C5.04513 12.3569 5.29887 12.4617 5.48626 12.6483C6.49061 13.6192 7.78872 14.2296 9.17723 14.3839C10.5657 14.5381 11.9662 14.2275 13.1592 13.5007C14.3522 12.7739 15.2704 11.6719 15.7699 10.3675C16.2694 9.063 16.322 7.62974 15.9194 6.29221C15.5168 4.95468 14.6819 3.78844 13.5453 2.97621C12.4087 2.16397 11.0348 1.75162 9.63871 1.80376C8.24263 1.85589 6.90328 2.36957 5.83049 3.26431C4.7577 4.15906 4.01208 5.38432 3.71044 6.74815C3.49429 7.73757 3.51655 8.76421 3.77541 9.74334C3.80598 9.85802 3.81366 9.9776 3.79801 10.0952C3.78236 10.2129 3.74368 10.3263 3.68419 10.429C3.6247 10.5317 3.54556 10.6217 3.45128 10.6938C3.35701 10.766 3.24945 10.8188 3.13474 10.8494C2.90308 10.9111 2.65638 10.8783 2.44892 10.7582C2.24145 10.6381 2.09021 10.4405 2.02846 10.2089C1.53118 8.34021 1.716 6.35556 2.54979 4.61083C3.38358 2.86609 4.81178 1.4754 6.57828 0.688157C8.34478 -0.0990878 10.334 -0.23139 12.1892 0.314976C14.0445 0.861343 15.6443 2.05064 16.7019 3.66958C17.7595 5.28852 18.2057 7.2312 17.9603 9.14924C17.715 11.0673 16.7942 12.8352 15.3632 14.1359C13.9321 15.4367 12.0844 16.1852 10.1514 16.2472C8.21832 16.3092 6.32641 15.6807 4.81491 14.4743L1.5412 17.7437C1.45738 17.8278 1.3578 17.8944 1.24818 17.9399C1.13855 17.9854 1.02103 18.0088 0.902336 18.0088C0.783648 18.0088 0.666122 17.9854 0.556498 17.9399C0.446871 17.8944 0.347296 17.8278 0.263475 17.7437C0.178354 17.6598 0.110764 17.5598 0.0646286 17.4495C0.0184956 17.3393 -0.00526237 17.2209 -0.00526237 17.1014C-0.00526237 16.9819 0.0184956 16.8635 0.0646286 16.7533C0.110764 16.643 0.178354 16.543 0.263475 16.4591Z" fill="#414141"/>
<path d="M7.17199 10.8263C7.31616 10.6924 7.50074 10.6102 7.69674 10.5926C7.89273 10.5749 8.08903 10.6229 8.2548 10.7289C8.72274 11.0176 9.25954 11.1756 9.80929 11.1863C10.359 11.1971 10.9016 11.0604 11.3805 10.7903C11.5429 10.6955 11.7316 10.656 11.9183 10.6774C12.105 10.6989 12.2798 10.7803 12.4164 10.9093L12.4706 10.9599C12.5675 11.0522 12.6418 11.1657 12.6877 11.2914C12.7336 11.4171 12.7498 11.5518 12.7352 11.6848C12.7205 11.8179 12.6753 11.9458 12.6031 12.0585C12.5309 12.1712 12.4337 12.2658 12.319 12.3348C11.5473 12.7796 10.6689 13.0052 9.77833 12.9874C8.88781 12.9696 8.01906 12.709 7.26583 12.2337C7.15578 12.1638 7.06285 12.0701 6.99393 11.9594C6.925 11.8488 6.88184 11.724 6.86763 11.5944C6.85342 11.4649 6.86853 11.3337 6.91184 11.2108C6.95515 11.0878 7.02556 10.9762 7.11785 10.8841L7.17199 10.8263Z" fill="#FFB900"/>
</g>
<defs>
<clipPath id="clip0_3_65">
<rect width="18" height="18" fill="white" transform="matrix(-1 0 0 1 18 0)"/>
</clipPath>
</defs>
</svg>
