<svg xmlns="http://www.w3.org/2000/svg" width="13.815" height="13.815" viewBox="0 0 13.815 13.815">
  <g id="time" transform="translate(-9.247 -15.144)">
    <path id="Path_10206" data-name="Path 10206" d="M27.159,39.122a6.065,6.065,0,1,1,6.065-6.065,6.072,6.072,0,0,1-6.065,6.065m0-11.846a5.781,5.781,0,1,0,5.781,5.781,5.787,5.787,0,0,0-5.781-5.781" transform="translate(-11.005 -11.006)" fill="#a7a7a7"/>
    <path id="Path_10207" data-name="Path 10207" d="M16.154,28.959a6.907,6.907,0,1,1,6.907-6.907,6.915,6.915,0,0,1-6.907,6.907m0-13.53a6.623,6.623,0,1,0,6.623,6.623,6.63,6.63,0,0,0-6.623-6.623" fill="#a7a7a7"/>
    <path id="Path_10208" data-name="Path 10208" d="M101.762,106.479a.482.482,0,1,1,.482-.482.483.483,0,0,1-.482.482m0-.68a.2.2,0,1,0,.2.2.2.2,0,0,0-.2-.2" transform="translate(-85.489 -83.946)" fill="#a7a7a7"/>
    <path id="Path_10209" data-name="Path 10209" d="M104.457,40.862a.142.142,0,0,1-.142-.142v-.769a.142.142,0,1,1,.284,0v.769a.142.142,0,0,1-.142.142" transform="translate(-88.309 -22.911)" fill="#a7a7a7"/>
    <path id="Path_10210" data-name="Path 10210" d="M55.671,62.516a.142.142,0,0,1-.1-.042l-.544-.544a.142.142,0,1,1,.2-.2l.544.544a.142.142,0,0,1-.1.243" transform="translate(-42.486 -43.234)" fill="#a7a7a7"/>
    <path id="Path_10211" data-name="Path 10211" d="M36.484,112.324h-.769a.142.142,0,0,1,0-.284h.769a.142.142,0,0,1,0,.284" transform="translate(-24.454 -90.007)" fill="#a7a7a7"/>
    <path id="Path_10212" data-name="Path 10212" d="M57.594,154.551a.142.142,0,0,1-.1-.243l.544-.544a.142.142,0,1,1,.2.2l-.544.544a.141.141,0,0,1-.1.042" transform="translate(-44.778 -128.726)" fill="#a7a7a7"/>
    <path id="Path_10213" data-name="Path 10213" d="M107.947,171.02a.142.142,0,0,1-.142-.142v-.769a.142.142,0,0,1,.284,0v.769a.142.142,0,0,1-.142.142" transform="translate(-91.551 -143.815)" fill="#a7a7a7"/>
    <path id="Path_10214" data-name="Path 10214" d="M150.174,152.083a.141.141,0,0,1-.1-.042l-.544-.544a.142.142,0,0,1,.2-.2l.544.544a.142.142,0,0,1-.1.243" transform="translate(-130.27 -126.434)" fill="#a7a7a7"/>
    <path id="Path_10215" data-name="Path 10215" d="M166.642,108.835h-.769a.142.142,0,0,1,0-.284h.769a.142.142,0,1,1,0,.284" transform="translate(-145.358 -86.766)" fill="#a7a7a7"/>
    <path id="Path_10216" data-name="Path 10216" d="M147.162,60.048a.142.142,0,0,1-.1-.243l.544-.544a.142.142,0,0,1,.2.2l-.544.544a.141.141,0,0,1-.1.042" transform="translate(-127.978 -40.942)" fill="#a7a7a7"/>
    <path id="Path_10217" data-name="Path 10217" d="M106.2,80.817a.142.142,0,0,1-.142-.142V78.762a.142.142,0,1,1,.284,0v1.912a.142.142,0,0,1-.142.142" transform="translate(-89.931 -58.963)" fill="#a7a7a7"/>
    <path id="Path_10218" data-name="Path 10218" d="M75.192,115.925a.142.142,0,0,1-.1-.243l1.964-1.964a.142.142,0,0,1,.2.2l-1.964,1.964a.142.142,0,0,1-.1.042" transform="translate(-61.125 -91.527)" fill="#a7a7a7"/>
  </g>
</svg>
