<svg width="30" height="30" viewBox="0 0 30 30" fill="none" xmlns="http://www.w3.org/2000/svg">
<path fill-rule="evenodd" clip-rule="evenodd" d="M20.5664 19.1602C20.5664 18.8672 20.5664 18.5156 20.5664 18.2227C20.5664 18.1641 20.5664 18.1055 20.5664 18.0469H27.8906L28.1836 19.1602H20.5664ZM20.5664 17.2266C20.4492 16.0547 20.0977 14.8828 19.6875 13.8867H26.6602L27.6562 17.2266H20.5664ZM19.2773 13.0664C18.5156 11.7773 17.5781 10.6055 16.4062 9.72656H25.4883L26.4844 13.0664H19.2773ZM16.6406 8.90625L17.5781 5.50781H24.3164L25.2539 8.90625H16.6406ZM17.8125 4.6875L18.5156 2.22656C18.5742 2.05078 18.75 1.93359 18.9258 1.93359H22.9688C23.1445 1.93359 23.3203 2.05078 23.3789 2.22656L24.082 4.6875H17.8125Z" fill="#FFB900"/>
<path fill-rule="evenodd" clip-rule="evenodd" d="M29.5898 23.1445H19.3945C19.8633 22.1484 20.2148 21.0938 20.4492 19.9805H29.5898C29.8242 19.9805 30 20.2148 30 20.3906V22.7344C30 22.9102 29.8242 23.1445 29.5898 23.1445Z" fill="#FFB900"/>
<path fill-rule="evenodd" clip-rule="evenodd" d="M9.90234 28.0664C8.73047 28.0664 7.61719 27.8906 6.62109 27.5391L9.90234 25.6641L13.125 27.5391C12.1289 27.8906 11.0156 28.0664 9.90234 28.0664ZM6.97266 19.6875L9.90234 21.4453L12.7734 19.6875V16.2891L9.90234 14.5312L6.97266 16.2891V19.6875ZM5.68359 27.1289C5.15625 26.8945 4.6875 26.6016 4.27734 26.3086V21.9141L6.62109 20.3906L9.49219 22.1484V24.9609L5.68359 27.1289ZM6.15234 19.6875L3.80859 21.2109L0.0585938 19.043C0 18.75 0 18.457 0 18.2227C0 17.9297 0 17.6367 0.0585938 17.4023L3.86719 15.1758C4.80469 15.6445 5.80078 16.1133 6.15234 16.2891V19.6875ZM6.62109 15.5859C6.50391 15.5859 6.44531 15.5273 6.32812 15.4688C6.09375 15.3516 5.80078 15.1758 5.39062 15C4.98047 14.7656 4.51172 14.5898 4.27734 14.4727V10.0781C4.6875 9.78516 5.15625 9.49219 5.68359 9.25781L9.49219 11.4844V13.8281L6.62109 15.5859ZM10.3125 13.8281V11.4844L14.1211 9.25781C14.5898 9.49219 15.0586 9.78516 15.5273 10.0781V14.4727L13.1836 15.6445L10.3125 13.8281ZM13.5938 16.3477L15.8789 15.1758L19.7461 17.4023C19.7461 17.6367 19.7461 17.9297 19.7461 18.2227C19.7461 18.457 19.7461 18.75 19.7461 19.043L15.9375 21.2109L13.5938 19.6875V16.3477ZM13.1836 20.3906L15.5273 21.9141V26.3086C15.0586 26.6016 14.5898 26.8945 14.1211 27.1289L10.3125 24.9609V22.1484L13.1836 20.3906ZM3.45703 25.6641C1.75781 24.2578 0.585938 22.2656 0.175781 20.0391L3.45703 21.9141V25.6641ZM0.175781 16.3477C0.585938 14.1211 1.75781 12.1289 3.45703 10.7227V14.4727L0.175781 16.3477ZM19.5703 20.0391C19.1602 22.2656 17.9883 24.2578 16.3477 25.6641V21.9141L19.5703 20.0391ZM16.3477 10.7227C17.9883 12.1289 19.1602 14.1211 19.5703 16.3477L16.3477 14.4727V10.7227ZM6.62109 8.84766C7.61719 8.49609 8.73047 8.32031 9.90234 8.32031C11.0156 8.32031 12.1289 8.49609 13.125 8.84766L9.90234 10.7812L6.62109 8.84766ZM8.90625 17.6953H8.32031C8.08594 17.6953 7.91016 17.5195 7.91016 17.2852C7.91016 17.1094 8.08594 16.875 8.32031 16.875H8.90625C9.14062 16.875 9.31641 17.1094 9.31641 17.2852C9.31641 17.5195 9.14062 17.6953 8.90625 17.6953ZM11.4258 17.6953H10.8398C10.6055 17.6953 10.4297 17.5195 10.4297 17.2852C10.4297 17.1094 10.6055 16.875 10.8398 16.875H11.4258C11.6602 16.875 11.8359 17.1094 11.8359 17.2852C11.8359 17.5195 11.6602 17.6953 11.4258 17.6953ZM8.90625 19.5117H8.32031C8.08594 19.5117 7.91016 19.3359 7.91016 19.1016C7.91016 18.8672 8.08594 18.6914 8.32031 18.6914H8.90625C9.14062 18.6914 9.31641 18.8672 9.31641 19.1016C9.31641 19.3359 9.14062 19.5117 8.90625 19.5117ZM11.4258 19.5117H10.8398C10.6055 19.5117 10.4297 19.3359 10.4297 19.1016C10.4297 18.8672 10.6055 18.6914 10.8398 18.6914H11.4258C11.6602 18.6914 11.8359 18.8672 11.8359 19.1016C11.8359 19.3359 11.6602 19.5117 11.4258 19.5117Z" fill="#0D4D3A"/>
</svg>
