<svg width="29" height="29" viewBox="0 0 29 29" fill="none" xmlns="http://www.w3.org/2000/svg">
<path fill-rule="evenodd" clip-rule="evenodd" d="M14.5 29C14.3867 29 14.3301 28.9434 14.2734 28.9434L13.1406 28.0371C12.5176 27.584 11.7812 27.0742 10.9883 26.5078C9.11914 25.1484 7.02344 23.6758 5.32422 21.9199C3.3418 19.8809 2.32227 17.8984 2.32227 15.8594V0.396484C2.32227 0.169922 2.54883 0 2.71875 0H26.2812C26.3379 0 26.4512 0.0566406 26.5645 0.113281C26.6211 0.169922 26.6777 0.283203 26.6777 0.396484V15.8594C26.6777 17.8984 25.6582 19.8809 23.6758 21.9199C21.9766 23.6758 19.8809 25.1484 18.0117 26.5078C17.2188 27.0742 16.4824 27.584 15.8594 28.0371L14.7266 28.9434C14.6699 28.9434 14.6133 29 14.5 29ZM18.0117 7.13672C16.9922 7.13672 16.1992 6.28711 16.1992 5.26758C16.1992 4.24805 16.9922 3.39844 18.0117 3.39844C18.5781 3.39844 19.0879 3.68164 19.4844 4.07812C19.5977 4.24805 19.5977 4.53125 19.4277 4.64453C19.2578 4.81445 18.9746 4.75781 18.8613 4.58789C18.6348 4.36133 18.3516 4.19141 18.0117 4.19141C17.4453 4.19141 16.9922 4.70117 16.9922 5.26758C16.9922 5.83398 17.4453 6.34375 18.0117 6.34375C18.2949 6.34375 18.5781 6.23047 18.748 6.06055C18.918 5.89062 19.1445 5.89062 19.3145 6.06055C19.4844 6.23047 19.4277 6.51367 19.3145 6.62695C18.918 6.9668 18.5215 7.13672 18.0117 7.13672ZM9.85547 7.13672C9.62891 7.13672 9.45898 6.9668 9.45898 6.74023V5.26758V3.79492C9.45898 3.56836 9.62891 3.39844 9.85547 3.39844H12.2344C12.4609 3.39844 12.6309 3.56836 12.6309 3.79492C12.6309 4.02148 12.4609 4.19141 12.2344 4.19141H10.252V4.87109H11.4414C11.668 4.87109 11.8379 5.04102 11.8379 5.26758C11.8379 5.49414 11.668 5.66406 11.4414 5.66406H10.252V6.74023C10.252 6.9668 10.082 7.13672 9.85547 7.13672ZM14.3867 18.918L11.8945 17.502L11.2715 17.7852L10.6484 19.3145C10.9883 19.7109 11.4414 20.0508 11.8945 20.334C12.4043 20.6172 12.9707 20.8438 13.5371 20.9004L14.5566 19.5977L14.3867 18.918ZM14.4434 21.0137H14.5C15.123 21.0137 15.7461 20.9004 16.3125 20.6738L15.123 20.1641L14.4434 21.0137ZM17.2754 20.2207C17.8984 19.8242 18.4082 19.3145 18.8613 18.6914L18.1816 17.1055L17.0488 16.8789L15.123 18.8047L15.293 19.3711L17.2754 20.2207ZM11.6113 16.7656L12.291 14.1602L11.5547 13.3105L9.85547 13.4805C9.40234 14.3867 9.23242 15.3496 9.3457 16.2559L10.9883 17.0488L11.6113 16.7656ZM12.9141 13.6504L15.4629 13.4238L16.0859 12.291L15.4629 10.7051C15.123 10.6484 14.8398 10.6484 14.5 10.6484C13.707 10.6484 12.9707 10.8184 12.291 11.1016L12.1211 12.7441L12.9141 13.6504ZM18.3516 16.3691L19.6543 15.3496C19.6543 15.0664 19.5977 14.7832 19.4844 14.5C19.3145 13.707 18.918 13.0273 18.4648 12.4609L16.7656 12.6875L16.1426 13.8203L17.1621 16.1426L18.3516 16.3691ZM12.4043 16.8789L14.6699 18.1816L16.4258 16.3691L15.4629 14.2168L13.0273 14.4434L12.4043 16.8789ZM14.5 21.8066C13.4238 21.8066 12.4043 21.5234 11.498 21.0137C10.875 20.6172 10.3652 20.1641 9.91211 19.6543L9.85547 19.5977C9.17578 18.748 8.72266 17.6719 8.55273 16.5957C8.55273 16.5957 8.55273 16.5391 8.55273 16.4824C8.43945 15.293 8.60938 14.0469 9.23242 12.9707C9.23242 12.9141 9.28906 12.9141 9.28906 12.9141C9.28906 12.9141 9.28906 12.8574 9.3457 12.8574C9.91211 11.8379 10.7051 11.0449 11.7246 10.5352C11.7246 10.5352 11.7812 10.4785 11.8379 10.4785C12.6309 10.082 13.5371 9.85547 14.5 9.85547C14.9531 9.85547 15.4062 9.91211 15.8027 9.96875C15.8594 9.96875 15.8594 9.96875 15.8594 10.0254C16.4258 10.1387 16.9922 10.3652 17.502 10.6484C18.0117 10.9316 18.4648 11.3281 18.8613 11.7246C18.8613 11.7246 18.8613 11.7812 18.918 11.7812C20.6172 13.6504 21.0137 16.4824 19.6543 18.8047C19.6543 18.8613 19.6543 18.8613 19.6543 18.918H19.5977C19.0879 19.7676 18.3516 20.5039 17.5586 20.957C17.502 21.0137 17.502 21.0137 17.4453 21.0137C16.5391 21.5234 15.5195 21.8066 14.5 21.8066ZM9.51562 17.2188C9.62891 17.6719 9.85547 18.125 10.082 18.5781L10.4785 17.6719L9.51562 17.2188ZM19.3145 17.7852C19.4844 17.332 19.5977 16.8223 19.6543 16.3691L18.9746 16.8789L19.3145 17.7852ZM11.4414 11.6113C11.0449 11.8945 10.7051 12.2344 10.4219 12.6309L11.3281 12.5176L11.4414 11.6113ZM17.7285 11.7246C17.502 11.6113 17.332 11.4414 17.1055 11.3281C16.8789 11.2148 16.6523 11.1016 16.4258 10.9883L16.7656 11.8945L17.7285 11.7246ZM14.5 26.6777C14.3867 26.6777 14.3301 26.6777 14.2734 26.6211C13.6504 26.168 12.9141 25.6016 12.1211 25.0918C8.55273 22.543 4.07812 19.4277 4.19141 15.8594V8.32617V2.20898C4.19141 1.98242 4.36133 1.8125 4.58789 1.8125H14.5H24.4121C24.5254 1.8125 24.6387 1.86914 24.6953 1.92578C24.8086 2.03906 24.8086 2.0957 24.8086 2.20898V8.32617V15.8594C24.9219 19.4277 20.4473 22.543 16.8789 25.0918C16.0859 25.6016 15.3496 26.168 14.7266 26.6211C14.6699 26.6777 14.6133 26.6777 14.5 26.6777ZM4.98438 2.60547V7.92969H14.1035V2.60547H4.98438ZM14.8965 7.92969H24.0156V2.60547H14.8965V7.92969ZM4.98438 8.72266V15.8594C4.87109 19.0312 9.3457 22.1465 12.5742 24.4121C13.2539 24.9219 13.9336 25.375 14.5 25.8281C15.0664 25.375 15.7461 24.9219 16.4258 24.4121C19.6543 22.1465 24.1289 19.0312 24.0156 15.8594V8.72266H14.5H4.98438Z" fill="#0D4D3A"/>
<path fill-rule="evenodd" clip-rule="evenodd" d="M0.453125 11.8945C0.226562 11.8945 0.0566406 11.7246 0.0566406 11.498V1.64258C0.0566406 1.41602 0.226562 1.24609 0.453125 1.24609C0.623047 1.24609 0.849609 1.41602 0.849609 1.64258V11.498C0.849609 11.7246 0.623047 11.8945 0.453125 11.8945Z" fill="#FFB900"/>
<path fill-rule="evenodd" clip-rule="evenodd" d="M28.5469 11.8945C28.377 11.8945 28.1504 11.7246 28.1504 11.498V1.64258C28.1504 1.41602 28.377 1.24609 28.5469 1.24609C28.7734 1.24609 28.9434 1.41602 28.9434 1.64258V11.498C28.9434 11.7246 28.7734 11.8945 28.5469 11.8945Z" fill="#FFB900"/>
<path fill-rule="evenodd" clip-rule="evenodd" d="M0.453125 16.9922C0.226562 16.9922 0.0566406 16.8223 0.0566406 16.5957V14.5C0.0566406 14.2734 0.226562 14.1035 0.453125 14.1035C0.623047 14.1035 0.849609 14.2734 0.849609 14.5V16.5957C0.849609 16.8223 0.623047 16.9922 0.453125 16.9922Z" fill="#FFB900"/>
<path fill-rule="evenodd" clip-rule="evenodd" d="M28.5469 16.9922C28.377 16.9922 28.1504 16.8223 28.1504 16.5957V14.5C28.1504 14.2734 28.377 14.1035 28.5469 14.1035C28.7734 14.1035 28.9434 14.2734 28.9434 14.5V16.5957C28.9434 16.8223 28.7734 16.9922 28.5469 16.9922Z" fill="#FFB900"/>
</svg>
