<svg width="30" height="30" viewBox="0 0 30 30" fill="none" xmlns="http://www.w3.org/2000/svg">
<path d="M19.2187 3.28125L19.1423 3.12833C19.2187 2.98415 19.2799 2.83239 19.3248 2.67551L19.6875 1.40625L16.875 2.34375L16.1632 1.98785C15.4125 1.61254 14.5524 1.51813 13.7383 1.72168L13.6989 1.73152C13.3176 1.82647 12.9686 2.02181 12.6883 2.29724C12.408 2.57266 12.2066 2.91813 12.105 3.29774L11.7719 3.36437C11.5232 3.41412 11.287 3.51387 11.0779 3.65756C10.8687 3.80124 10.6909 3.98588 10.5552 4.20029C10.4196 4.4147 10.3288 4.65442 10.2885 4.90494C10.2482 5.15545 10.2591 5.41154 10.3206 5.6577L10.7812 7.5V7.96875H19.2187C19.6435 7.26076 19.8679 6.45064 19.8679 5.625C19.8679 4.79936 19.6435 3.98923 19.2187 3.28125Z" fill="#0D4D3A"/>
<path d="M25.5093 21.4575C25.1584 20.4749 24.5782 19.5901 23.817 18.8766C23.0557 18.1631 22.1353 17.6413 21.132 17.3547L19.1724 16.7948C18.7806 16.6829 18.4359 16.4463 18.1906 16.1211C17.9452 15.7958 17.8125 15.3994 17.8125 14.9919V14.0625H12.1875V14.9919C12.1875 15.3994 12.0547 15.7958 11.8093 16.1211C11.564 16.4463 11.2193 16.6829 10.8275 16.7948L8.86788 17.3547C7.86464 17.6413 6.94425 18.1631 6.18294 18.8766C5.42168 19.5901 4.84151 20.4749 4.49058 21.4575L3.41229 24.4767L15 27.1875L26.5876 24.4767L25.5093 21.4575Z" fill="#0D4D3A"/>
<path d="M19.1187 8.49097V8.4375V7.54142L18.2909 6.71366L18.2909 6.71365C17.9581 6.38074 17.5066 6.19375 17.0358 6.19375H12.9642C12.4934 6.19375 12.0419 6.38074 11.709 6.71365L11.709 6.71366L10.8812 7.54142V8.4375V8.49102L10.8367 8.5207L10.7982 8.54637L10.7982 8.54637C10.6447 8.64872 10.5157 8.78396 10.4207 8.94221C10.3256 9.10042 10.2669 9.27779 10.2487 9.46148L19.1187 8.49097ZM19.1187 8.49097L19.1632 8.52067M19.1187 8.49097L19.1632 8.52067M19.1632 8.52067L19.2016 8.54633L19.2017 8.54638C19.3553 8.64873 19.4843 8.78396 19.5793 8.94221C19.6743 9.10045 19.733 9.27783 19.7512 9.46149L19.7512 9.46151C19.7694 9.64521 19.7466 9.83061 19.6845 10.0045C19.6223 10.1783 19.5224 10.3362 19.3919 10.4667L19.148 10.7105L19.1245 10.7341L19.1197 10.7671L19.0331 11.3739C18.9175 12.1831 18.6074 12.9521 18.1295 13.6153C17.6515 14.2784 17.02 14.8157 16.2889 15.1813L15 15.8257L13.7111 15.1813C12.98 14.8157 12.3485 14.2784 11.8705 13.6153C11.3925 12.9521 11.0825 12.1831 10.9669 11.3739L10.8802 10.7671L10.8755 10.7341M19.1632 8.52067L10.8755 10.7341M10.8755 10.7341L10.852 10.7105M10.8755 10.7341L10.852 10.7105M10.852 10.7105L10.6081 10.4667C10.4776 10.3362 10.3777 10.1783 10.3155 10.0045L10.852 10.7105ZM10.3155 10.0045C10.2533 9.83064 10.2305 9.64525 10.2487 9.46152L10.3155 10.0045Z" fill="white" stroke="#D9D9D9" stroke-width="0.2"/>
<path d="M21.132 17.3548L19.1724 16.7949C18.7587 16.6765 18.3986 16.4192 18.1525 16.0663L16.5896 17.6292C16.1721 18.0468 15.6057 18.2814 15.0152 18.2814H14.9847C14.3942 18.2814 13.8279 18.0468 13.4103 17.6292L11.8474 16.0663C11.6013 16.4192 11.2412 16.6765 10.8275 16.7949L8.86794 17.3548C7.86464 17.6414 6.94425 18.1632 6.18294 18.8767C5.42168 19.5902 4.84151 20.475 4.49059 21.4576L3.41229 24.4768L15 27.1876L26.5876 24.4768L25.5093 21.4576C25.1584 20.475 24.5782 19.5902 23.817 18.8767C23.0557 18.1632 22.1353 17.6414 21.132 17.3548Z" fill="#0D4D3A"/>
<path d="M24.466 25.1613L23.4981 22.4191C23.2243 21.6436 22.7668 20.9459 22.1647 20.3858C21.5626 19.8256 20.8338 19.4195 20.0406 19.2022L20.2882 18.298C21.2274 18.5553 22.0904 19.0361 22.8033 19.6994C23.5163 20.3628 24.058 21.1889 24.3822 22.1072L25.3501 24.8493L24.466 25.1613Z" fill="white"/>
<path d="M5.53451 25.1613L4.65045 24.8493L5.61828 22.1072C5.94249 21.1889 6.48425 20.3628 7.19716 19.6994C7.91013 19.0361 8.7731 18.5553 9.7123 18.298L9.95979 19.2022C9.16661 19.4195 8.43782 19.8256 7.83577 20.3858C7.23366 20.9459 6.77616 21.6436 6.50235 22.4191L5.53451 25.1613Z" fill="white"/>
<path d="M28.475 23.6688C28.2561 23.231 27.8746 22.8961 27.412 22.7358C26.9495 22.5755 26.4426 22.6024 25.9996 22.8108L20.2672 25.5084C19.8914 25.6853 19.4675 25.7324 19.0621 25.6423L15.4688 24.8438H17.8125C18.3098 24.8438 18.7867 24.6462 19.1383 24.2946C19.49 23.9429 19.6875 23.466 19.6875 22.9688V22.5H13.9549C13.7163 22.5 13.48 22.5455 13.2585 22.6341L11.6265 23.2869C11.3784 23.3862 11.1119 23.4312 10.8449 23.4191L0.9375 22.9688V28.5938L10.5826 27.6752C10.7147 27.6626 10.8477 27.664 10.9794 27.6796L18.75 28.5938L28.5938 23.9062L28.475 23.6688Z" fill="#FFB900"/>
<path d="M13.125 9.375H12.1875V10.3125H13.125V9.375Z" fill="#0D4D3A"/>
<path d="M15.8237 10.567L15.4688 7.96875H14.5313L14.1763 10.567C14.1434 10.7648 14.1747 10.9679 14.2657 11.1465C14.3566 11.3252 14.5025 11.47 14.6818 11.5597L15 11.7188L15.3182 11.5597C15.4975 11.47 15.6434 11.3252 15.7343 11.1465C15.8253 10.9679 15.8566 10.7648 15.8237 10.567Z" fill="#0D4D3A"/>
<path d="M17.8125 9.375H16.875V10.3125H17.8125V9.375Z" fill="#0D4D3A"/>
<path d="M15.8239 12.6703L13.9489 13.1391L14.1763 14.0486L16.0513 13.5798L15.8239 12.6703Z" fill="#0D4D3A"/>
<path d="M12.6155 19.1781C13.2418 19.8044 14.0914 20.1564 14.9771 20.1564H15.0228C15.9086 20.1564 16.7581 19.8044 17.3844 19.1781L19.6354 16.9272L19.1724 16.7949C18.7588 16.6765 18.3986 16.4192 18.1525 16.0663L16.5896 17.6292C16.172 18.0468 15.6057 18.2814 15.0152 18.2814H14.9847C14.3942 18.2814 13.8279 18.0468 13.4103 17.6292L11.8474 16.0663C11.6014 16.4192 11.2412 16.6765 10.8276 16.7949L10.3646 16.9272L12.6155 19.1781Z" fill="#0D4D3A"/>
<path d="M14.383 8.88216L13.7135 8.65898C13.5384 8.60009 13.3534 8.57654 13.1691 8.5896C12.9848 8.60273 12.805 8.65218 12.64 8.73527L12.3971 8.85667L11.9778 8.0182L12.2207 7.89679C12.4957 7.75833 12.7955 7.67578 13.1026 7.65392C13.4098 7.63212 13.7181 7.67138 14.01 7.76958L14.6794 7.99271L14.383 8.88216Z" fill="#0D4D3A"/>
<path d="M15.617 8.88223L15.3206 7.99283L15.99 7.76965C16.2818 7.6715 16.5903 7.63225 16.8974 7.65404C17.2045 7.6759 17.5043 7.7584 17.7793 7.89685L18.0221 8.01826L17.6029 8.8568L17.36 8.73539C17.195 8.65225 17.0152 8.60273 16.8309 8.58961C16.6466 8.57654 16.4616 8.60016 16.2865 8.6591L15.617 8.88223Z" fill="#0D4D3A"/>
<path d="M17.0753 4.84462C16.919 4.84458 16.763 4.83165 16.6089 4.80594L16.3228 4.75826C16.2002 4.73782 16.0907 4.66951 16.0184 4.56834C15.9462 4.46719 15.9171 4.34147 15.9374 4.21884L15.9375 4.21879C15.9476 4.15807 15.9696 4.09993 16.0021 4.04771C16.0348 3.99548 16.0773 3.95019 16.1274 3.9144C16.1775 3.87862 16.2341 3.85306 16.2941 3.83917C16.354 3.82528 16.4162 3.82334 16.4769 3.83346L16.763 3.88114C17.0634 3.93186 17.3717 3.90839 17.661 3.81275C17.9503 3.71712 18.2118 3.55224 18.4228 3.33244C18.4975 3.25339 18.5972 3.20261 18.7051 3.18869C18.8129 3.17477 18.9222 3.19858 19.0146 3.25608C19.0733 3.29314 19.1232 3.3428 19.1605 3.40147C19.1977 3.46014 19.2214 3.52635 19.23 3.59533C19.2386 3.66431 19.2317 3.73432 19.2098 3.80032C19.1881 3.86631 19.1518 3.92663 19.1039 3.97693C18.842 4.25126 18.5272 4.46961 18.1785 4.61876C17.8298 4.7679 17.4545 4.84474 17.0753 4.84462Z" fill="#0D4D3A"/>
<path d="M11.5962 4.30752C11.5637 4.11486 11.5528 3.91918 11.5637 3.7241C11.5672 3.65382 11.5865 3.58523 11.6201 3.5234C11.6537 3.46158 11.7008 3.40809 11.7578 3.36688C11.8149 3.32567 11.8805 3.29779 11.9497 3.2853C12.019 3.27281 12.0901 3.27602 12.158 3.29471L12.1583 3.2948C12.2616 3.32384 12.3517 3.38734 12.4139 3.47475C12.4761 3.56216 12.5065 3.66821 12.5 3.77528C12.4931 3.90162 12.5002 4.02834 12.5212 4.15311C12.5396 4.25897 12.521 4.36791 12.4687 4.46177C12.4165 4.55563 12.3336 4.62873 12.234 4.66889L12.2336 4.66902C12.1683 4.69494 12.098 4.70587 12.0278 4.70101C11.9576 4.69615 11.8895 4.67562 11.8283 4.64094C11.7672 4.60625 11.7146 4.55829 11.6744 4.5006C11.6343 4.44289 11.6075 4.37692 11.5962 4.30752Z" fill="#0D4D3A"/>
</svg>
