<svg width="25" height="25" viewBox="0 0 25 25" fill="none" xmlns="http://www.w3.org/2000/svg">
<path d="M21.0938 4.37108H18.582C18.5821 4.15298 18.5364 3.93728 18.4481 3.73787C18.3598 3.53847 18.2306 3.35977 18.0691 3.21327C17.9075 3.06678 17.717 2.95573 17.5099 2.88729C17.3029 2.81884 17.0837 2.79451 16.8667 2.81585C16.473 2.86458 16.1113 3.05716 15.851 3.35656C15.5908 3.65595 15.4505 4.04099 15.457 4.43762V5.15233C15.457 5.51052 15.58 5.85786 15.8054 6.13619C16.0309 6.41453 16.3451 6.60695 16.6955 6.68123C16.7957 6.70024 16.8845 6.75763 16.943 6.84117C17.0015 6.92471 17.025 7.02779 17.0086 7.12843C16.9921 7.22907 16.937 7.3193 16.855 7.37989C16.773 7.44049 16.6705 7.46664 16.5695 7.45278C16.0363 7.34788 15.5561 7.0612 15.2107 6.64166C14.8653 6.22212 14.6763 5.69573 14.6758 5.15233V4.37108H10.3242C10.3222 4.1643 10.2792 3.95998 10.1977 3.76994C10.1162 3.57991 9.99774 3.40794 9.84928 3.264C9.70082 3.12006 9.52527 3.00701 9.3328 2.9314C9.14033 2.85579 8.93478 2.81913 8.72804 2.82354C8.5213 2.82794 8.31749 2.87333 8.12842 2.95706C7.93935 3.0408 7.76877 3.16122 7.62657 3.31135C7.48437 3.46149 7.37338 3.63834 7.30002 3.83168C7.22667 4.02502 7.1924 4.23099 7.19922 4.43766V5.15233C7.19915 5.51052 7.32215 5.85787 7.54761 6.1362C7.77308 6.41453 8.08733 6.60695 8.43773 6.68123C8.53792 6.70024 8.62671 6.75764 8.68518 6.84117C8.74365 6.92471 8.76718 7.02779 8.75074 7.12842C8.7343 7.22906 8.6792 7.31929 8.59719 7.37989C8.51518 7.44048 8.41274 7.46664 8.31172 7.45278C7.77853 7.34789 7.29827 7.0612 6.9529 6.64166C6.60754 6.22213 6.41847 5.69573 6.41797 5.15233V4.37108H3.90625C3.285 4.37223 2.68953 4.61953 2.25024 5.05882C1.81096 5.49811 1.56366 6.09358 1.5625 6.71483V8.89061H23.4375V6.71483C23.4363 6.09358 23.189 5.49811 22.7498 5.05882C22.3105 4.61953 21.715 4.37223 21.0938 4.37108ZM7.98047 4.37108C7.98345 4.16584 8.06707 3.97001 8.21326 3.82593C8.35946 3.68185 8.55647 3.60108 8.76174 3.60108C8.967 3.60109 9.16401 3.68187 9.3102 3.82596C9.45638 3.97004 9.54 4.16587 9.54297 4.37111L7.98047 4.37108ZM16.2383 4.37108C16.2413 4.16584 16.3249 3.97001 16.4711 3.82593C16.6173 3.68185 16.8143 3.60108 17.0195 3.60108C17.2248 3.60109 17.4218 3.68187 17.568 3.82596C17.7142 3.97004 17.7978 4.16587 17.8008 4.37111L16.2383 4.37108Z" fill="#0D4D3A"/>
<path d="M1.5625 19.8477C1.56299 20.4691 1.81008 21.065 2.24951 21.5044C2.68894 21.9438 3.2848 22.1909 3.90625 22.1914H21.0938C21.7152 22.1909 22.3111 21.9438 22.7505 21.5044C23.1899 21.065 23.437 20.4691 23.4375 19.8477V9.67188H1.5625V19.8477ZM18.75 11.2461C19.0585 11.2496 19.3532 11.3746 19.5702 11.594C19.7871 11.8134 19.9087 12.1095 19.9087 12.418C19.9087 12.7265 19.7871 13.0226 19.5701 13.242C19.3532 13.4614 19.0585 13.5864 18.75 13.5898C18.4414 13.5864 18.1467 13.4614 17.9298 13.242C17.7129 13.0226 17.5912 12.7265 17.5912 12.418C17.5912 12.1094 17.7129 11.8133 17.9298 11.5939C18.1468 11.3746 18.4415 11.2496 18.75 11.2461ZM18.75 14.7617C19.0585 14.7652 19.3532 14.8902 19.5702 15.1096C19.7871 15.329 19.9087 15.6251 19.9087 15.9336C19.9087 16.2421 19.7871 16.5382 19.5701 16.7576C19.3532 16.977 19.0585 17.102 18.75 17.1055C18.4414 17.102 18.1467 16.977 17.9298 16.7576C17.7129 16.5382 17.5912 16.2421 17.5912 15.9336C17.5912 15.625 17.7129 15.329 17.9298 15.1096C18.1468 14.8902 18.4415 14.7652 18.75 14.7617ZM18.75 18.2773C19.0585 18.2808 19.3532 18.4058 19.5702 18.6252C19.7871 18.8446 19.9087 19.1407 19.9087 19.4492C19.9087 19.7578 19.7871 20.0539 19.5701 20.2732C19.3532 20.4926 19.0585 20.6176 18.75 20.6211C18.4414 20.6176 18.1467 20.4926 17.9298 20.2732C17.7129 20.0538 17.5912 19.7577 17.5912 19.4492C17.5912 19.1407 17.7129 18.8446 17.9298 18.6252C18.1468 18.4058 18.4415 18.2808 18.75 18.2773ZM12.5 11.2461C12.8085 11.2496 13.1032 11.3746 13.3201 11.594C13.5371 11.8134 13.6587 12.1095 13.6587 12.418C13.6587 12.7265 13.5371 13.0226 13.3201 13.242C13.1032 13.4614 12.8085 13.5864 12.5 13.5898C12.1914 13.5864 11.8967 13.4614 11.6798 13.242C11.4629 13.0226 11.3412 12.7265 11.3412 12.418C11.3412 12.1094 11.4629 11.8133 11.6798 11.5939C11.8968 11.3746 12.1915 11.2496 12.5 11.2461ZM12.5 14.7617C12.8085 14.7652 13.1032 14.8902 13.3201 15.1096C13.5371 15.329 13.6587 15.6251 13.6587 15.9336C13.6587 16.2421 13.5371 16.5382 13.3201 16.7576C13.1032 16.977 12.8085 17.102 12.5 17.1055C12.1914 17.102 11.8967 16.977 11.6798 16.7576C11.4629 16.5382 11.3412 16.2421 11.3412 15.9336C11.3412 15.625 11.4629 15.329 11.6798 15.1096C11.8968 14.8902 12.1915 14.7652 12.5 14.7617ZM12.5 18.2773C12.8085 18.2808 13.1032 18.4058 13.3201 18.6252C13.5371 18.8446 13.6587 19.1407 13.6587 19.4492C13.6587 19.7578 13.5371 20.0539 13.3201 20.2732C13.1032 20.4926 12.8085 20.6176 12.5 20.6211C12.1914 20.6176 11.8967 20.4926 11.6798 20.2732C11.4629 20.0538 11.3412 19.7577 11.3412 19.4492C11.3412 19.1407 11.4629 18.8446 11.6798 18.6252C11.8968 18.4058 12.1915 18.2808 12.5 18.2773ZM6.25 11.2461C6.55852 11.2496 6.85322 11.3746 7.07015 11.594C7.28708 11.8134 7.40875 12.1095 7.40874 12.418C7.40874 12.7265 7.28706 13.0226 7.07012 13.242C6.85318 13.4614 6.55848 13.5864 6.24997 13.5898C5.94145 13.5864 5.64675 13.4614 5.42982 13.242C5.21288 13.0226 5.09122 12.7265 5.09122 12.418C5.09123 12.1094 5.2129 11.8133 5.42984 11.5939C5.64678 11.3746 5.94148 11.2496 6.25 11.2461ZM6.25 14.7617C6.55852 14.7652 6.85322 14.8902 7.07015 15.1096C7.28708 15.329 7.40875 15.6251 7.40874 15.9336C7.40874 16.2421 7.28706 16.5382 7.07012 16.7576C6.85318 16.977 6.55848 17.102 6.24997 17.1055C5.94145 17.102 5.64675 16.977 5.42982 16.7576C5.21288 16.5382 5.09122 16.2421 5.09122 15.9336C5.09123 15.625 5.2129 15.329 5.42984 15.1096C5.64678 14.8902 5.94148 14.7652 6.25 14.7617ZM6.25 18.2773C6.55852 18.2808 6.85322 18.4058 7.07015 18.6252C7.28708 18.8446 7.40875 19.1407 7.40874 19.4492C7.40874 19.7578 7.28706 20.0539 7.07012 20.2732C6.85318 20.4926 6.55848 20.6176 6.24997 20.6211C5.94145 20.6176 5.64675 20.4926 5.42982 20.2732C5.21288 20.0538 5.09122 19.7577 5.09122 19.4492C5.09123 19.1407 5.2129 18.8446 5.42984 18.6252C5.64678 18.4058 5.94148 18.2808 6.25 18.2773Z" fill="#0D4D3A"/>
<path d="M6.24989 12.8086C6.35253 12.8071 6.45048 12.7653 6.52255 12.6922C6.59462 12.6192 6.63503 12.5206 6.63503 12.418C6.63503 12.3153 6.59462 12.2168 6.52255 12.1437C6.45048 12.0706 6.35253 12.0288 6.24989 12.0273C6.14724 12.0288 6.04929 12.0706 5.97722 12.1437C5.90515 12.2168 5.86475 12.3153 5.86475 12.418C5.86475 12.5206 5.90515 12.6192 5.97722 12.6922C6.04929 12.7653 6.14724 12.8071 6.24989 12.8086Z" fill="#0D4D3A"/>
<path d="M6.24989 16.3242C6.35253 16.3228 6.45048 16.281 6.52255 16.2079C6.59462 16.1348 6.63503 16.0362 6.63503 15.9336C6.63503 15.8309 6.59462 15.7324 6.52255 15.6593C6.45048 15.5862 6.35253 15.5444 6.24989 15.543C6.14724 15.5444 6.04929 15.5862 5.97722 15.6593C5.90515 15.7324 5.86475 15.8309 5.86475 15.9336C5.86475 16.0362 5.90515 16.1348 5.97722 16.2079C6.04929 16.281 6.14724 16.3228 6.24989 16.3242Z" fill="#0D4D3A"/>
<path d="M6.24989 19.8398C6.35253 19.8384 6.45048 19.7966 6.52255 19.7235C6.59462 19.6504 6.63503 19.5519 6.63503 19.4492C6.63503 19.3466 6.59462 19.248 6.52255 19.1749C6.45048 19.1018 6.35253 19.06 6.24989 19.0586C6.14724 19.06 6.04929 19.1018 5.97722 19.1749C5.90515 19.248 5.86475 19.3466 5.86475 19.4492C5.86475 19.5519 5.90515 19.6504 5.97722 19.7235C6.04929 19.7966 6.14724 19.8384 6.24989 19.8398Z" fill="#0D4D3A"/>
<path d="M12.4999 19.8398C12.6025 19.8384 12.7005 19.7966 12.7725 19.7235C12.8446 19.6504 12.885 19.5519 12.885 19.4492C12.885 19.3466 12.8446 19.248 12.7725 19.1749C12.7005 19.1018 12.6025 19.06 12.4999 19.0586C12.3972 19.06 12.2993 19.1018 12.2272 19.1749C12.1552 19.248 12.1147 19.3466 12.1147 19.4492C12.1147 19.5519 12.1552 19.6504 12.2272 19.7235C12.2993 19.7966 12.3972 19.8384 12.4999 19.8398Z" fill="#0D4D3A"/>
<path d="M12.4999 16.3242C12.6025 16.3228 12.7005 16.281 12.7725 16.2079C12.8446 16.1348 12.885 16.0362 12.885 15.9336C12.885 15.8309 12.8446 15.7324 12.7725 15.6593C12.7005 15.5862 12.6025 15.5444 12.4999 15.543C12.3972 15.5444 12.2993 15.5862 12.2272 15.6593C12.1552 15.7324 12.1147 15.8309 12.1147 15.9336C12.1147 16.0362 12.1552 16.1348 12.2272 16.2079C12.2993 16.281 12.3972 16.3228 12.4999 16.3242Z" fill="#0D4D3A"/>
<path d="M12.4999 12.8086C12.6025 12.8071 12.7005 12.7653 12.7725 12.6922C12.8446 12.6192 12.885 12.5206 12.885 12.418C12.885 12.3153 12.8446 12.2168 12.7725 12.1437C12.7005 12.0706 12.6025 12.0288 12.4999 12.0273C12.3972 12.0288 12.2993 12.0706 12.2272 12.1437C12.1552 12.2168 12.1147 12.3153 12.1147 12.418C12.1147 12.5206 12.1552 12.6192 12.2272 12.6922C12.2993 12.7653 12.3972 12.8071 12.4999 12.8086Z" fill="#0D4D3A"/>
<path d="M18.7499 12.8086C18.8525 12.8071 18.9505 12.7653 19.0225 12.6922C19.0946 12.6192 19.135 12.5206 19.135 12.418C19.135 12.3153 19.0946 12.2168 19.0225 12.1437C18.9505 12.0706 18.8525 12.0288 18.7499 12.0273C18.6472 12.0288 18.5493 12.0706 18.4772 12.1437C18.4052 12.2168 18.3647 12.3153 18.3647 12.418C18.3647 12.5206 18.4052 12.6192 18.4772 12.6922C18.5493 12.7653 18.6472 12.8071 18.7499 12.8086Z" fill="#0D4D3A"/>
<path d="M18.7499 16.3242C18.8525 16.3228 18.9505 16.281 19.0225 16.2079C19.0946 16.1348 19.135 16.0362 19.135 15.9336C19.135 15.8309 19.0946 15.7324 19.0225 15.6593C18.9505 15.5862 18.8525 15.5444 18.7499 15.543C18.6472 15.5444 18.5493 15.5862 18.4772 15.6593C18.4052 15.7324 18.3647 15.8309 18.3647 15.9336C18.3647 16.0362 18.4052 16.1348 18.4772 16.2079C18.5493 16.281 18.6472 16.3228 18.7499 16.3242Z" fill="#0D4D3A"/>
<path d="M18.7499 19.8398C18.8525 19.8384 18.9505 19.7966 19.0225 19.7235C19.0946 19.6504 19.135 19.5519 19.135 19.4492C19.135 19.3466 19.0946 19.248 19.0225 19.1749C18.9505 19.1018 18.8525 19.06 18.7499 19.0586C18.6472 19.06 18.5493 19.1018 18.4772 19.1749C18.4052 19.248 18.3647 19.3466 18.3647 19.4492C18.3647 19.5519 18.4052 19.6504 18.4772 19.7235C18.5493 19.7966 18.6472 19.8384 18.7499 19.8398Z" fill="#0D4D3A"/>
</svg>
