<svg width="16" height="16" viewBox="0 0 16 16" fill="none" xmlns="http://www.w3.org/2000/svg">
<path d="M11.7803 6.71069C11.016 6.71069 10.2687 6.93734 9.63318 7.36201C8.99762 7.78667 8.50225 8.39026 8.20973 9.09645C7.91721 9.80264 7.84067 10.5797 7.98978 11.3294C8.1389 12.0791 8.50698 12.7677 9.04747 13.3082C9.58796 13.8488 10.2766 14.2168 11.0263 14.366C11.776 14.5151 12.5531 14.4386 13.2593 14.1461C13.9655 13.8536 14.5691 13.3582 14.9937 12.7226C15.4184 12.0871 15.6451 11.3399 15.6451 10.5755C15.6439 9.55085 15.2364 8.5685 14.5119 7.84396C13.7873 7.11942 12.805 6.71186 11.7803 6.71069ZM11.7803 13.478C11.2063 13.478 10.6451 13.3078 10.1678 12.9889C9.69043 12.6699 9.3184 12.2166 9.0987 11.6862C8.87901 11.1559 8.82153 10.5723 8.93352 10.0092C9.04552 9.44618 9.32196 8.92899 9.72789 8.52306C10.1338 8.11713 10.651 7.84068 11.2141 7.72869C11.7771 7.61669 12.3607 7.67418 12.8911 7.89387C13.4214 8.11356 13.8748 8.48559 14.1937 8.96292C14.5126 9.44025 14.6829 10.0014 14.6829 10.5755C14.682 11.345 14.3759 12.0828 13.8318 12.6269C13.2876 13.1711 12.5499 13.4771 11.7803 13.478Z" fill="#414141"/>
<path d="M11.5363 11.9379C11.3666 11.928 11.1988 11.8962 11.0372 11.8432C10.9405 11.8096 10.8456 11.771 10.7529 11.7273L10.934 11.243C11.0474 11.2964 11.165 11.3401 11.2857 11.3735C11.4261 11.4135 11.5715 11.4333 11.7174 11.4325C11.8389 11.4438 11.9611 11.4196 12.0691 11.363C12.0999 11.3408 12.1247 11.3113 12.1413 11.2771C12.1578 11.2429 12.1656 11.2051 12.1639 11.1672C12.1653 11.1188 12.1521 11.0711 12.126 11.0303C12.0969 10.9888 12.0596 10.9537 12.0165 10.9271C11.959 10.8913 11.8984 10.861 11.8354 10.8365C11.7623 10.8071 11.6781 10.7755 11.5826 10.7418C11.49 10.7081 11.3994 10.6709 11.311 10.6301C11.2248 10.5909 11.1441 10.5406 11.0709 10.4806C10.993 10.4174 10.931 10.3369 10.8897 10.2455C10.8484 10.1542 10.8289 10.0544 10.8329 9.95417C10.8326 9.86349 10.8461 9.7733 10.873 9.68669C10.8993 9.60165 10.9415 9.52235 10.9972 9.45294C11.0576 9.37929 11.132 9.31844 11.2162 9.27395C11.3165 9.22129 11.4246 9.18503 11.5363 9.16654V8.71167H12.067V9.14969C12.1942 9.16056 12.3202 9.18169 12.444 9.21288C12.5296 9.23429 12.6134 9.26245 12.6946 9.29712L12.564 9.80253C12.4597 9.75957 12.3519 9.72575 12.2418 9.70143C12.1153 9.67291 11.986 9.65879 11.8564 9.65934C11.7549 9.65085 11.6532 9.67441 11.5658 9.72671C11.5378 9.74679 11.5151 9.77339 11.4997 9.80422C11.4843 9.83505 11.4766 9.86917 11.4774 9.90362C11.4762 9.94395 11.4856 9.98388 11.5047 10.0194C11.526 10.0549 11.5557 10.0845 11.5911 10.1058C11.6373 10.1346 11.6859 10.1593 11.7364 10.1796C11.7939 10.2035 11.8634 10.2296 11.9449 10.2577C12.0622 10.3 12.1768 10.3493 12.2881 10.4054C12.3869 10.4545 12.4789 10.5161 12.5619 10.5887C12.6381 10.6562 12.6998 10.7386 12.743 10.8308C12.7884 10.9327 12.8107 11.0434 12.8083 11.1549C12.8082 11.2398 12.7954 11.3243 12.7704 11.4054C12.7443 11.4897 12.7013 11.5677 12.644 11.6348C12.5797 11.7092 12.5018 11.7706 12.4145 11.8159C12.3055 11.8712 12.1881 11.9082 12.067 11.9253V12.4391H11.5363V11.9379Z" fill="#414141"/>
<path d="M11.4934 4.30151L11.4919 6.12187C10.8832 6.16142 10.2891 6.32546 9.74635 6.60383C9.2036 6.8822 8.72374 7.26898 8.33646 7.74024C7.53718 7.85927 6.73005 7.91773 5.92196 7.91513C4.37946 7.91513 2.93352 7.71659 1.85116 7.35547C0.748117 6.98795 0.35498 6.56378 0.35498 6.28937V4.30151L0.579137 4.43551C1.67529 5.09271 3.72276 5.50112 5.92196 5.50112C8.12363 5.50112 10.1731 5.09271 11.2697 4.43601L11.4934 4.30151Z" fill="white"/>
<path d="M7.31814 10.5753C7.31816 10.7569 7.32918 10.9384 7.35115 11.1187C6.89003 11.1576 6.41068 11.1773 5.92197 11.1773C4.37947 11.1773 2.93353 10.9788 1.85117 10.6182C0.748117 10.2507 0.35498 9.82599 0.35498 9.55158V7.56372L0.579137 7.69772C1.67529 8.35541 3.72276 8.76333 5.92196 8.76333C6.53149 8.76382 7.14061 8.73192 7.74675 8.66776C7.46367 9.26378 7.31723 9.91548 7.31814 10.5753Z" fill="white"/>
<path d="M9.08282 14.1279C8.04312 14.3429 6.98364 14.4476 5.92196 14.4403C4.37946 14.4403 2.93353 14.2417 1.85117 13.8806C0.748118 13.5131 0.35498 13.0889 0.35498 12.8145V10.8262L0.579137 10.9607C1.67529 11.6179 3.72276 12.0263 5.92196 12.0263C6.47374 12.0263 7.01566 12.0007 7.5359 11.9519C7.8181 12.8177 8.35777 13.5769 9.08282 14.1279Z" fill="white"/>
<path d="M1.85086 4.25181C2.93347 4.61262 4.37929 4.81131 5.92196 4.81131C7.46463 4.81131 8.91046 4.61262 9.99307 4.25181C11.096 3.88418 11.4889 3.45996 11.4889 3.18556C11.4889 2.91117 11.096 2.48695 9.99307 2.11931C8.91046 1.75851 7.46463 1.55981 5.92196 1.55981C4.37929 1.55981 2.93347 1.75851 1.85086 2.11931C0.747948 2.48695 0.35498 2.91117 0.35498 3.18556C0.35498 3.45996 0.747949 3.88418 1.85086 4.25181Z" fill="white"/>
</svg>
