<svg width="33" height="33" viewBox="0 0 33 33" fill="none" xmlns="http://www.w3.org/2000/svg">
<circle cx="16.5" cy="16.5" r="16.5" fill="#FFB900"/>
<path d="M10.125 11.7188H12.7812H12.8344C13.0469 12.6219 13.8969 13.3125 14.9062 13.3125C15.9156 13.3125 16.7125 12.6219 16.9781 11.7188H17.0312H22.875C23.1938 11.7188 23.4062 11.5062 23.4062 11.1875C23.4062 10.8687 23.1938 10.6562 22.875 10.6562H17.0312H16.9781C16.7656 9.75312 15.9156 9.0625 14.9062 9.0625C13.8969 9.0625 13.1 9.75312 12.8344 10.6562H12.7812H10.125C9.80625 10.6562 9.59375 10.8687 9.59375 11.1875C9.59375 11.5062 9.80625 11.7188 10.125 11.7188Z" fill="white"/>
<path d="M22.875 15.9688H20.75H20.6969C20.4844 15.0656 19.6344 14.375 18.625 14.375C17.6156 14.375 16.8188 15.0656 16.5531 15.9688H16.5H10.125C9.80625 15.9688 9.59375 16.1812 9.59375 16.5C9.59375 16.8187 9.80625 17.0312 10.125 17.0312H16.5H16.5531C16.7656 17.9344 17.6156 18.625 18.625 18.625C19.6344 18.625 20.4312 17.9344 20.6969 17.0312H20.75H22.875C23.1938 17.0312 23.4062 16.8187 23.4062 16.5C23.4062 16.1812 23.1938 15.9688 22.875 15.9688Z" fill="white"/>
<path d="M22.875 21.2812H17.0312H16.9781C16.7656 20.3781 15.9156 19.6875 14.9062 19.6875C13.8969 19.6875 13.1 20.3781 12.8344 21.2812H12.7812H10.125C9.80625 21.2812 9.59375 21.4937 9.59375 21.8125C9.59375 22.1312 9.80625 22.3438 10.125 22.3438H12.7812H12.8344C13.0469 23.2469 13.8969 23.9375 14.9062 23.9375C15.9156 23.9375 16.7125 23.2469 16.9781 22.3438H17.0312H22.875C23.1938 22.3438 23.4062 22.1312 23.4062 21.8125C23.4062 21.4937 23.1938 21.2812 22.875 21.2812Z" fill="white"/>
</svg>
