<svg width="29" height="29" viewBox="0 0 29 29" fill="none" xmlns="http://www.w3.org/2000/svg">
<path d="M29 22.6522V27.8078H0V22.6522L14.5 20.7189L29 22.6522Z" fill="#FFB900"/>
<path d="M29 1.1922H0V22.6522H29V1.1922Z" fill="#0D4D3A"/>
<path d="M14.4672 18.9563C18.352 18.9563 21.5012 15.807 21.5012 11.9222C21.5012 8.03739 18.352 4.88812 14.4672 4.88812C10.5823 4.88812 7.43307 8.03739 7.43307 11.9222C7.43307 15.807 10.5823 18.9563 14.4672 18.9563Z" fill="#FFB900"/>
<path d="M12.1417 7.8858L19.133 11.9222L12.1417 15.9586V7.8858Z" fill="white"/>
<path d="M26.4222 25.7133H2.57777C2.31082 25.7133 2.09445 25.497 2.09445 25.23C2.09445 24.963 2.31088 24.7467 2.57777 24.7467H26.4222C26.6892 24.7467 26.9055 24.9631 26.9055 25.23C26.9055 25.497 26.6892 25.7133 26.4222 25.7133Z" fill="white"/>
</svg>
