<svg width="27" height="27" viewBox="0 0 27 27" fill="none" xmlns="http://www.w3.org/2000/svg">
<path d="M2.49646 25.7903C2.49646 26.4584 3.04145 27 3.71367 27C4.38589 27 4.93088 26.4584 4.93088 25.7903C4.93088 25.7834 4.92998 25.7767 4.92984 25.7698H2.49751C2.49737 25.7767 2.49646 25.7834 2.49646 25.7903Z" fill="#0D4D3A"/>
<path d="M22.0692 25.7903C22.0692 26.4584 22.6142 27 23.2864 27C23.9586 27 24.5036 26.4584 24.5036 25.7903C24.5036 25.7834 24.5027 25.7767 24.5026 25.7698H22.0703C22.0702 25.7767 22.0692 25.7834 22.0692 25.7903Z" fill="#0D4D3A"/>
<path d="M13.002 4.29763C14.1803 4.57037 15.3578 3.84209 15.6322 2.67114C15.9066 1.50018 15.1738 0.329799 13.9957 0.0572376C12.8174 -0.215517 11.6398 0.512764 11.3653 1.68372C11.0911 2.85467 11.8239 4.02507 13.002 4.29763Z" fill="#0D4D3A"/>
<path d="M13.2898 12.1864L14.4026 12.1865C14.0035 11.9044 13.6005 11.6902 13.2405 11.5192C13.1966 10.8814 13.2394 10.2149 13.3232 9.56401C13.5775 9.66258 13.8583 9.7191 14.1513 9.7191C14.1585 9.7191 14.1656 9.71905 14.1728 9.719C14.9464 9.71418 15.771 9.40283 16.7524 8.77033C17.1127 8.5368 17.2143 8.05727 16.9794 7.69904C16.7444 7.3408 16.2617 7.23986 15.9015 7.47344C15.0665 8.01758 14.4859 8.17535 14.1728 8.17058C13.9344 8.16519 13.8316 8.11213 13.7102 8.01398C13.6756 7.98591 13.6408 7.94764 13.6065 7.90449C13.6732 7.57178 13.7392 7.25622 13.7959 6.96835C14.0754 6.00521 13.7099 4.8524 12.8786 4.64647C12.8178 4.63139 12.7547 4.62029 12.6902 4.61235C12.6118 4.57658 12.5265 4.55253 12.4358 4.54435C12.2429 4.52691 12.0605 4.5814 11.9142 4.68488C11.5907 4.78303 11.2681 4.9677 10.9881 5.2516C11.2052 5.25193 11.4085 5.25845 11.5877 5.26748C11.9512 5.28572 12.2143 5.31402 12.2821 5.32163C12.7331 5.37518 13.0741 5.72485 13.134 6.14947C13.1415 6.20198 13.1452 6.25538 13.1436 6.30977C13.1428 6.33888 13.1412 6.36812 13.1376 6.39761C13.0793 6.88395 12.6638 7.25102 12.1717 7.25102C12.1331 7.25102 12.0942 7.24856 12.0556 7.24403C12.0526 7.24374 12.0298 7.241 11.9805 7.23618C11.9264 7.2307 11.8468 7.22352 11.7477 7.21624C11.7299 7.21491 11.7103 7.21359 11.6906 7.21227C11.5091 7.19993 11.253 7.18694 10.9766 7.18694C10.631 7.18694 10.3137 7.20759 10.0609 7.24563C10.0192 7.39571 9.98027 7.54362 9.94575 7.68864C10.1677 7.94372 10.5534 8.32525 11.2176 8.84623C11.4219 9.0066 11.5511 9.23625 11.5811 9.49294C11.6116 9.75 11.5392 10.0029 11.3781 10.2059C11.1921 10.4393 10.9134 10.5735 10.6134 10.5735C10.3955 10.5735 10.1812 10.4995 10.01 10.3648C9.89654 10.2755 9.78908 10.1883 9.68457 10.1022C9.69265 10.5847 9.73083 11.0995 9.79874 11.6793C9.83568 11.8683 9.88417 12.0363 9.94208 12.1863L10.3388 12.1864L13.2898 12.1864Z" fill="#0D4D3A"/>
<path d="M10.6135 10.3799C10.8437 10.3799 11.0715 10.279 11.2253 10.0857C11.492 9.75026 11.4346 9.26326 11.0971 8.99817C10.5582 8.57581 10.1637 8.21389 9.89359 7.92115C9.8119 7.83264 9.74116 7.75023 9.68182 7.67467C9.55358 7.51287 9.47703 7.38274 9.43876 7.29701C9.42711 7.27084 9.41898 7.2491 9.41327 7.23162C9.49106 7.18871 9.66798 7.11442 9.89986 7.07634C9.9689 7.06315 10.0426 7.05205 10.1184 7.04227C10.3883 7.00745 10.6927 6.99303 10.9765 6.99327C11.2299 6.99327 11.4669 7.00385 11.6561 7.01595C11.6933 7.01832 11.7292 7.02073 11.7623 7.02314C11.8635 7.03069 11.9446 7.03797 11.9996 7.04335C12.0546 7.04884 12.0786 7.05186 12.0786 7.05186C12.5057 7.10223 12.8933 6.79915 12.9443 6.37471C12.9951 5.9499 12.69 5.56497 12.2629 5.51422C12.2498 5.5128 11.9769 5.48042 11.5762 5.46049C11.3978 5.45165 11.1941 5.44523 10.9765 5.44513C10.9238 5.44536 10.8697 5.44616 10.8157 5.44702C10.2981 5.45529 9.72447 5.49688 9.18481 5.65768C8.88707 5.75029 8.58818 5.87779 8.31844 6.12048C8.04747 6.35477 7.83451 6.76257 7.84302 7.18077C7.85096 7.70936 8.08907 8.15893 8.45633 8.63052C8.75207 9.00407 9.15243 9.40186 9.68253 9.84784C9.82327 9.96621 9.97114 10.0873 10.131 10.2131C10.274 10.3253 10.4444 10.3798 10.6135 10.3799Z" fill="#0D4D3A"/>
<path d="M7.76289 22.4767C7.92921 22.5538 8.10405 22.5902 8.27617 22.5902C8.73477 22.5902 9.17392 22.3314 9.38032 21.891C11.0519 18.3243 11.9795 15.4288 12.4285 13.8181C12.5424 13.8772 12.6572 13.9416 12.7688 14.0113C13.1056 14.2177 13.4062 14.4686 13.5893 14.7112C13.7742 14.9603 13.8524 15.1633 13.8558 15.4312C13.855 15.646 13.7983 15.9383 13.5707 16.3537C13.344 16.7665 12.9425 17.2895 12.2981 17.8968C11.8106 18.3568 11.7905 19.1225 12.2534 19.607C12.7163 20.0915 13.4869 20.1112 13.9745 19.6512C14.7527 18.9159 15.3196 18.2152 15.7057 17.5161C16.0908 16.8197 16.2911 16.112 16.2902 15.4312C16.2933 14.7109 16.0627 14.0632 15.7331 13.5409H9.97723C9.52291 15.1051 8.65545 17.7087 7.17355 20.8693C6.88965 21.4748 7.15348 22.1946 7.76289 22.4767Z" fill="#0D4D3A"/>
<path d="M0.292131 25.5763H2.51663H4.91074H22.0894H24.4835H26.7079C26.8691 25.5763 27 25.4463 27 25.286V23.2538C27 23.0934 26.8691 22.9634 26.7079 22.9634H25.4432L21.5705 10.8468C21.5396 10.7502 21.4573 10.6841 21.3607 10.664L23.7753 7.72712C23.8238 7.66814 23.8151 7.5812 23.7558 7.53281L23.1821 7.06726C23.1228 7.01887 23.0353 7.02766 22.9868 7.08683L18.6347 12.3799L14.6618 12.3799L13.2879 12.3798L10.2919 12.3798H10.0273L6.32936 12.3797C4.98473 12.38 3.89532 13.4627 3.89503 14.7994V22.9634H0.292131C0.130806 22.9634 0 23.0934 0 23.2538V25.286C0 25.4463 0.130806 25.5763 0.292131 25.5763ZM10.0329 13.3475H11.4106H12.6244H15.6019H20.122L23.1954 22.9634H4.8688V14.7994C4.87037 13.9977 5.52301 13.3491 6.32936 13.3475H10.0329Z" fill="#FFB900"/>
</svg>
