<svg width="22" height="22" viewBox="0 0 22 22" fill="none" xmlns="http://www.w3.org/2000/svg">
<path d="M16.8437 3.20376H13.8119C13.7995 3.03333 13.7511 2.86746 13.6699 2.71714C13.5886 2.56682 13.4763 2.43547 13.3404 2.3318C13.2046 2.22813 13.0483 2.1545 12.8819 2.11578C12.7154 2.07706 12.5427 2.07414 12.375 2.1072C12.2992 1.79984 12.1225 1.52676 11.8733 1.33155C11.624 1.13634 11.3166 1.03027 11 1.03027C10.6834 1.03027 10.376 1.13634 10.1267 1.33155C9.87751 1.52676 9.70086 1.79984 9.62499 2.1072H9.33624C9.04038 2.1077 8.75599 2.22173 8.54173 2.42576C8.32747 2.62979 8.19967 2.90827 8.18468 3.20376H5.17343C4.86406 3.20467 4.56767 3.32821 4.34922 3.54729C4.1308 3.7664 4.00812 4.06312 4.00812 4.37253V19.8C4.00812 20.1094 4.1308 20.4062 4.34922 20.6252C4.56767 20.8443 4.86406 20.9679 5.17343 20.9688H16.8437C17.1531 20.9679 17.4495 20.8443 17.668 20.6252C17.8864 20.4062 18.0091 20.1094 18.0091 19.8V4.37253C18.0091 4.06312 17.8864 3.7664 17.668 3.54729C17.4495 3.32821 17.1531 3.20467 16.8437 3.20376ZM8.73124 15.0322H6.91281C6.82164 15.0322 6.73423 14.996 6.66974 14.9315C6.60529 14.867 6.56906 14.7796 6.56906 14.6885V12.9697C6.56906 12.8785 6.60529 12.7911 6.66974 12.7266C6.73423 12.6622 6.82164 12.626 6.91281 12.626H8.73124C8.82244 12.626 8.90985 12.6622 8.97431 12.7266C9.0388 12.7911 9.07499 12.8785 9.07499 12.9697V14.6885C9.07499 14.7796 9.0388 14.867 8.97431 14.9315C8.90985 14.996 8.82244 15.0322 8.73124 15.0322ZM9.07499 16.3488V18.0675C9.07499 18.1587 9.0388 18.2461 8.97431 18.3106C8.90985 18.375 8.82244 18.4113 8.73124 18.4113H6.91281C6.82164 18.4113 6.73423 18.375 6.66974 18.3106C6.60529 18.2461 6.56906 18.1587 6.56906 18.0675V16.3488C6.56906 16.2576 6.60529 16.1702 6.66974 16.1057C6.73423 16.0412 6.82164 16.005 6.91281 16.005H8.73124C8.82244 16.005 8.90985 16.0412 8.97431 16.1057C9.0388 16.1702 9.07499 16.2576 9.07499 16.3488ZM8.73124 11.6463H6.91281C6.82164 11.6463 6.73423 11.61 6.66974 11.5456C6.60529 11.4811 6.56906 11.3937 6.56906 11.3025V9.58378C6.56906 9.49258 6.60529 9.40517 6.66974 9.34068C6.73423 9.27623 6.82164 9.24003 6.91281 9.24003H8.73124C8.82244 9.24003 8.90985 9.27623 8.97431 9.34068C9.0388 9.40517 9.07499 9.49258 9.07499 9.58378V11.3025C9.07499 11.3937 9.0388 11.4811 8.97431 11.5456C8.90985 11.61 8.82244 11.6463 8.73124 11.6463ZM8.73124 8.25691H6.91281C6.82164 8.25691 6.73423 8.22067 6.66974 8.15622C6.60529 8.09173 6.56906 8.00432 6.56906 7.91316V6.18753C6.56906 6.09633 6.60529 6.00892 6.66974 5.94443C6.73423 5.87998 6.82164 5.84378 6.91281 5.84378H8.73124C8.82244 5.84378 8.90985 5.87998 8.97431 5.94443C9.0388 6.00892 9.07499 6.09633 9.07499 6.18753V7.90628C9.07499 7.99744 9.0388 8.08486 8.97431 8.14935C8.90985 8.2138 8.82244 8.25003 8.73124 8.25003V8.25691ZM12.6294 6.43159C12.6294 6.52276 12.5932 6.61017 12.5287 6.67466C12.4642 6.73911 12.3768 6.77534 12.2856 6.77534H9.82437C9.73321 6.77534 9.64579 6.73911 9.5813 6.67466C9.51685 6.61017 9.48062 6.52276 9.48062 6.43159C9.48062 6.3404 9.51685 6.25298 9.5813 6.18849C9.64579 6.12404 9.73321 6.08784 9.82437 6.08784H12.2856C12.3768 6.08784 12.4642 6.12404 12.5287 6.18849C12.5932 6.25298 12.6294 6.3404 12.6294 6.43159ZM9.82437 17.356H15.2487C15.3399 17.356 15.4274 17.3922 15.4918 17.4566C15.5563 17.5211 15.5925 17.6085 15.5925 17.6997C15.5925 17.7909 15.5563 17.8783 15.4918 17.9428C15.4274 18.0072 15.3399 18.0435 15.2487 18.0435H9.82437C9.73321 18.0435 9.64579 18.0072 9.5813 17.9428C9.51685 17.8783 9.48062 17.7909 9.48062 17.6997C9.48062 17.6085 9.51685 17.5211 9.5813 17.4566C9.64579 17.3922 9.73321 17.356 9.82437 17.356ZM9.48062 16.5963C9.48062 16.5051 9.51685 16.4177 9.5813 16.3532C9.64579 16.2887 9.73321 16.2525 9.82437 16.2525H12.2856C12.3768 16.2525 12.4642 16.2887 12.5287 16.3532C12.5932 16.4177 12.6294 16.5051 12.6294 16.5963C12.6294 16.6874 12.5932 16.7749 12.5287 16.8393C12.4642 16.9038 12.3768 16.94 12.2856 16.94H9.82437C9.73321 16.94 9.64579 16.9038 9.5813 16.8393C9.51685 16.7749 9.48062 16.6874 9.48062 16.5963ZM15.2487 14.6541H9.82437C9.73321 14.6541 9.64579 14.6179 9.5813 14.5534C9.51685 14.4889 9.48062 14.4015 9.48062 14.3103C9.48062 14.2191 9.51685 14.1317 9.5813 14.0672C9.64579 14.0028 9.73321 13.9666 9.82437 13.9666H15.2487C15.3399 13.9666 15.4274 14.0028 15.4918 14.0672C15.5563 14.1317 15.5925 14.2191 15.5925 14.3103C15.5925 14.4015 15.5563 14.4889 15.4918 14.5534C15.4274 14.6179 15.3399 14.6541 15.2487 14.6541ZM9.48062 13.2069C9.48062 13.1157 9.51685 13.0283 9.5813 12.9638C9.64579 12.8994 9.73321 12.8632 9.82437 12.8632H12.2856C12.3768 12.8632 12.4642 12.8994 12.5287 12.9638C12.5932 13.0283 12.6294 13.1157 12.6294 13.2069C12.6294 13.2981 12.5932 13.3855 12.5287 13.45C12.4642 13.5144 12.3768 13.5507 12.2856 13.5507H9.82437C9.73321 13.5507 9.64579 13.5144 9.5813 13.45C9.51685 13.3855 9.48062 13.2981 9.48062 13.2069ZM15.2487 11.2682H9.82437C9.73321 11.2682 9.64579 11.2319 9.5813 11.1675C9.51685 11.103 9.48062 11.0156 9.48062 10.9244C9.48062 10.8332 9.51685 10.7458 9.5813 10.6813C9.64579 10.6169 9.73321 10.5807 9.82437 10.5807H15.2487C15.3399 10.5807 15.4274 10.6169 15.4918 10.6813C15.5563 10.7458 15.5925 10.8332 15.5925 10.9244C15.5925 11.0156 15.5563 11.103 15.4918 11.1675C15.4274 11.2319 15.3399 11.2682 15.2487 11.2682ZM9.48062 9.81753C9.48062 9.72633 9.51685 9.63892 9.5813 9.57443C9.64579 9.50998 9.73321 9.47378 9.82437 9.47378H12.2856C12.3768 9.47378 12.4642 9.50998 12.5287 9.57443C12.5932 9.63892 12.6294 9.72633 12.6294 9.81753C12.6294 9.90869 12.5932 9.99611 12.5287 10.0606C12.4642 10.125 12.3768 10.1613 12.2856 10.1613H9.82437C9.73321 10.1613 9.64579 10.125 9.5813 10.0606C9.51685 9.99611 9.48062 9.90869 9.48062 9.81753ZM15.2487 7.87878H9.82437C9.73321 7.87878 9.64579 7.84255 9.5813 7.7781C9.51685 7.71361 9.48062 7.62619 9.48062 7.53503C9.48062 7.44383 9.51685 7.35642 9.5813 7.29193C9.64579 7.22748 9.73321 7.19128 9.82437 7.19128H15.2487C15.3399 7.19128 15.4274 7.22748 15.4918 7.29193C15.5563 7.35642 15.5925 7.44383 15.5925 7.53503C15.5925 7.62619 15.5563 7.71361 15.4918 7.7781C15.4274 7.84255 15.3399 7.87878 15.2487 7.87878ZM8.86874 3.26908C8.8683 3.20694 8.88016 3.14534 8.9036 3.0878C8.92708 3.03027 8.96169 2.97794 9.00545 2.93385C9.04925 2.88975 9.10132 2.85476 9.15866 2.83088C9.21603 2.80699 9.27756 2.7947 9.33968 2.7947H9.92406C10.0153 2.7947 10.1027 2.75849 10.1671 2.69402C10.2316 2.62955 10.2678 2.54212 10.2678 2.45095C10.2678 2.25676 10.3449 2.07053 10.4823 1.93322C10.6196 1.7959 10.8058 1.71876 11 1.71876C11.1942 1.71876 11.3804 1.7959 11.5177 1.93322C11.655 2.07053 11.7322 2.25676 11.7322 2.45095C11.7322 2.54212 11.7684 2.62955 11.8329 2.69402C11.8974 2.75849 11.9848 2.7947 12.0759 2.7947H12.6603C12.7225 2.7947 12.784 2.80699 12.8413 2.83088C12.8987 2.85476 12.9508 2.88975 12.9945 2.93385C13.0383 2.97794 13.0729 3.03027 13.0964 3.0878C13.1199 3.14534 13.1317 3.20694 13.1312 3.26908V4.30034H8.86874V3.26908ZM17.3044 19.8C17.3045 19.9242 17.2566 20.0435 17.1708 20.1332C17.085 20.2229 16.9678 20.276 16.8437 20.2813H5.17343C5.04641 20.2804 4.92486 20.2292 4.83535 20.1391C4.74587 20.0489 4.69562 19.927 4.69562 19.8V4.37253C4.69562 4.24548 4.74587 4.12359 4.83535 4.03342C4.92486 3.94329 5.04641 3.89217 5.17343 3.89128H8.18124V4.29347H5.58937C5.49821 4.29347 5.41079 4.32966 5.3463 4.39412C5.28185 4.45861 5.24562 4.54602 5.24562 4.63722V19.5353C5.24562 19.6265 5.28185 19.7139 5.3463 19.7784C5.41079 19.8429 5.49821 19.8791 5.58937 19.8791H16.4106C16.5018 19.8791 16.5892 19.8429 16.6537 19.7784C16.7182 19.7139 16.7544 19.6265 16.7544 19.5353V4.63722C16.7544 4.54602 16.7182 4.45861 16.6537 4.39412C16.5892 4.32966 16.5018 4.29347 16.4106 4.29347H13.8187V3.89128H16.8437C16.9708 3.89217 17.0923 3.94329 17.1818 4.03342C17.2713 4.12359 17.3216 4.24548 17.3216 4.37253L17.3044 19.8Z" fill="#0D4D3A"/>
<path d="M8.39097 9.9137H7.25659V10.9587H8.39097V9.9137Z" fill="#0D4D3A"/>
<path d="M8.39097 6.52783H7.25659V7.57283H8.39097V6.52783Z" fill="#0D4D3A"/>
<path d="M8.39097 13.3031H7.25659V14.3481H8.39097V13.3031Z" fill="#0D4D3A"/>
<path d="M8.39097 16.6925H7.25659V17.7375H8.39097V16.6925Z" fill="#0D4D3A"/>
</svg>
